<svg width="310" height="42" viewBox="0 0 310 42" fill="none" xmlns="http://www.w3.org/2000/svg">
<path d="M0.0800171 41.52V40.8C1.38668 40.7733 2.42668 40.2533 3.20002 39.24C3.97335 38.2533 4.36002 36.7467 4.36002 34.72V17.68C4.36002 16.48 4.17335 15.6 3.80002 15.04C3.42668 14.4533 2.76002 14.16 1.80002 14.16V13.32C2.65335 13.4 3.48002 13.44 4.28002 13.44C5.37335 13.44 6.41335 13.4 7.40002 13.32C8.38668 13.2133 9.29335 13.0667 10.12 12.88V30.24C10.12 31.7067 10.0267 33 9.84002 34.12C9.65335 35.24 9.34668 36.2267 8.92002 37.08C8.49335 37.9333 7.93335 38.6933 7.24002 39.36C6.57335 40 5.65335 40.52 4.48002 40.92C3.33335 41.32 1.86668 41.52 0.0800171 41.52ZM6.80002 2.99998C7.92002 2.99998 8.80002 3.27998 9.44002 3.83999C10.1067 4.37332 10.44 5.11998 10.44 6.07999C10.44 7.03998 10.1067 7.79998 9.44002 8.35998C8.80002 8.89332 7.92002 9.15998 6.80002 9.15998C5.68002 9.15998 4.78668 8.89332 4.12002 8.35998C3.48002 7.79998 3.16002 7.03998 3.16002 6.07999C3.16002 5.11998 3.48002 4.37332 4.12002 3.83999C4.78668 3.27998 5.68002 2.99998 6.80002 2.99998Z" fill="#141414"/>
<path d="M19.355 34.28C18.155 34.28 17.155 34.0533 16.355 33.6C15.555 33.1467 14.9684 32.5467 14.595 31.8C14.2217 31.0267 14.035 30.1867 14.035 29.28C14.035 28.1333 14.2884 27.2 14.795 26.48C15.3284 25.76 16.0084 25.1733 16.835 24.72C17.6617 24.2667 18.5284 23.8933 19.435 23.6C20.3684 23.3067 21.2484 23.0267 22.075 22.76C22.9284 22.4667 23.6084 22.1333 24.115 21.76C24.6483 21.36 24.915 20.8533 24.915 20.24V17.12C24.915 16.4267 24.795 15.8133 24.555 15.28C24.3417 14.72 23.995 14.2933 23.515 14C23.0617 13.7067 22.4617 13.56 21.715 13.56C21.1817 13.56 20.6483 13.64 20.115 13.8C19.5817 13.9333 19.1417 14.1733 18.795 14.52C19.5417 14.7867 20.115 15.2 20.515 15.76C20.9417 16.2933 21.155 16.9067 21.155 17.6C21.155 18.5067 20.835 19.2267 20.195 19.76C19.5817 20.2933 18.8484 20.56 17.995 20.56C17.035 20.56 16.3017 20.2667 15.795 19.68C15.315 19.0667 15.075 18.3333 15.075 17.48C15.075 16.7067 15.2617 16.0667 15.635 15.56C16.035 15.0533 16.5817 14.5733 17.275 14.12C18.0217 13.6933 18.915 13.36 19.955 13.12C21.0217 12.88 22.1684 12.76 23.395 12.76C24.6217 12.76 25.7284 12.8933 26.715 13.16C27.7017 13.4 28.5284 13.8533 29.195 14.52C29.8084 15.1333 30.2084 15.8933 30.395 16.8C30.5817 17.68 30.675 18.8 30.675 20.16V31.04C30.675 31.7067 30.7417 32.1733 30.875 32.44C31.0084 32.68 31.235 32.8 31.555 32.8C31.795 32.8 32.0217 32.7333 32.235 32.6C32.475 32.4667 32.7284 32.3067 32.995 32.12L33.395 32.8C32.835 33.28 32.1817 33.6533 31.435 33.92C30.715 34.16 29.9017 34.28 28.995 34.28C28.0084 34.28 27.2217 34.1467 26.635 33.88C26.0484 33.5867 25.6217 33.2 25.355 32.72C25.115 32.24 24.995 31.68 24.995 31.04C24.355 32.0533 23.5817 32.8533 22.675 33.44C21.7684 34 20.6617 34.28 19.355 34.28ZM22.195 31.72C22.7283 31.72 23.2084 31.6 23.635 31.36C24.0884 31.0933 24.515 30.6667 24.915 30.08V21.88C24.675 22.28 24.3417 22.64 23.915 22.96C23.4884 23.28 23.035 23.6133 22.555 23.96C22.075 24.28 21.6084 24.64 21.155 25.04C20.7284 25.44 20.3817 25.9333 20.115 26.52C19.8484 27.1067 19.715 27.8133 19.715 28.64C19.715 29.68 19.9417 30.4533 20.395 30.96C20.8484 31.4667 21.4484 31.72 22.195 31.72Z" fill="#141414"/>
<path d="M49.4181 12.76C50.5381 12.76 51.4448 12.9067 52.1381 13.2C52.8581 13.4667 53.4181 13.84 53.8181 14.32C54.2448 14.8267 54.5515 15.48 54.7381 16.28C54.9515 17.08 55.0581 18.16 55.0581 19.52V30.28C55.0581 31.4 55.2448 32.16 55.6181 32.56C56.0181 32.96 56.6848 33.16 57.6181 33.16V34C57.1115 33.9733 56.3515 33.9467 55.3381 33.92C54.3248 33.8667 53.3248 33.84 52.3381 33.84C51.3248 33.84 50.3248 33.8667 49.3381 33.92C48.3781 33.9467 47.6448 33.9733 47.1381 34V33.16C47.9381 33.16 48.4981 32.96 48.8181 32.56C49.1381 32.16 49.2981 31.4 49.2981 30.28V17.84C49.2981 17.1733 49.2315 16.6 49.0981 16.12C48.9648 15.6133 48.7248 15.2267 48.3781 14.96C48.0315 14.6667 47.5115 14.52 46.8181 14.52C46.0981 14.52 45.4315 14.72 44.8181 15.12C44.2315 15.52 43.7515 16.08 43.3781 16.8C43.0315 17.4933 42.8581 18.28 42.8581 19.16V30.28C42.8581 31.4 43.0181 32.16 43.3381 32.56C43.6848 32.96 44.2448 33.16 45.0181 33.16V34C44.5381 33.9733 43.8315 33.9467 42.8981 33.92C41.9915 33.8667 41.0448 33.84 40.0581 33.84C39.0448 33.84 38.0048 33.8667 36.9381 33.92C35.8715 33.9467 35.0715 33.9733 34.5381 34V33.16C35.4715 33.16 36.1248 32.96 36.4981 32.56C36.8981 32.16 37.0981 31.4 37.0981 30.28V17.68C37.0981 16.48 36.9115 15.6 36.5381 15.04C36.1915 14.4533 35.5248 14.16 34.5381 14.16V13.32C35.3915 13.4 36.2181 13.44 37.0181 13.44C38.1381 13.44 39.1781 13.4 40.1381 13.32C41.1248 13.2133 42.0315 13.0667 42.8581 12.88V16.48C43.5248 15.12 44.4315 14.16 45.5781 13.6C46.7248 13.04 48.0048 12.76 49.4181 12.76Z" fill="#141414"/>
<path d="M64.6285 34.28C63.4285 34.28 62.4285 34.0533 61.6285 33.6C60.8285 33.1467 60.2418 32.5467 59.8685 31.8C59.4951 31.0267 59.3085 30.1867 59.3085 29.28C59.3085 28.1333 59.5618 27.2 60.0685 26.48C60.6018 25.76 61.2818 25.1733 62.1085 24.72C62.9351 24.2667 63.8018 23.8933 64.7085 23.6C65.6418 23.3067 66.5218 23.0267 67.3485 22.76C68.2018 22.4667 68.8818 22.1333 69.3885 21.76C69.9218 21.36 70.1885 20.8533 70.1885 20.24V17.12C70.1885 16.4267 70.0685 15.8133 69.8285 15.28C69.6151 14.72 69.2685 14.2933 68.7885 14C68.3351 13.7067 67.7351 13.56 66.9885 13.56C66.4551 13.56 65.9218 13.64 65.3885 13.8C64.8551 13.9333 64.4151 14.1733 64.0685 14.52C64.8151 14.7867 65.3885 15.2 65.7885 15.76C66.2151 16.2933 66.4285 16.9067 66.4285 17.6C66.4285 18.5067 66.1085 19.2267 65.4685 19.76C64.8551 20.2933 64.1218 20.56 63.2685 20.56C62.3085 20.56 61.5751 20.2667 61.0685 19.68C60.5885 19.0667 60.3485 18.3333 60.3485 17.48C60.3485 16.7067 60.5351 16.0667 60.9085 15.56C61.3085 15.0533 61.8551 14.5733 62.5485 14.12C63.2951 13.6933 64.1885 13.36 65.2285 13.12C66.2951 12.88 67.4418 12.76 68.6685 12.76C69.8951 12.76 71.0018 12.8933 71.9885 13.16C72.9751 13.4 73.8018 13.8533 74.4685 14.52C75.0818 15.1333 75.4818 15.8933 75.6685 16.8C75.8551 17.68 75.9485 18.8 75.9485 20.16V31.04C75.9485 31.7067 76.0151 32.1733 76.1485 32.44C76.2818 32.68 76.5085 32.8 76.8285 32.8C77.0685 32.8 77.2951 32.7333 77.5085 32.6C77.7485 32.4667 78.0018 32.3067 78.2685 32.12L78.6685 32.8C78.1085 33.28 77.4551 33.6533 76.7085 33.92C75.9885 34.16 75.1751 34.28 74.2685 34.28C73.2818 34.28 72.4951 34.1467 71.9085 33.88C71.3218 33.5867 70.8951 33.2 70.6285 32.72C70.3885 32.24 70.2685 31.68 70.2685 31.04C69.6285 32.0533 68.8551 32.8533 67.9485 33.44C67.0418 34 65.9351 34.28 64.6285 34.28ZM67.4685 31.72C68.0018 31.72 68.4818 31.6 68.9085 31.36C69.3618 31.0933 69.7885 30.6667 70.1885 30.08V21.88C69.9485 22.28 69.6151 22.64 69.1885 22.96C68.7618 23.28 68.3085 23.6133 67.8285 23.96C67.3484 24.28 66.8818 24.64 66.4285 25.04C66.0018 25.44 65.6551 25.9333 65.3885 26.52C65.1218 27.1067 64.9885 27.8133 64.9885 28.64C64.9885 29.68 65.2151 30.4533 65.6685 30.96C66.1218 31.4667 66.7218 31.72 67.4685 31.72Z" fill="#141414"/>
<path d="M88.1316 12.88V30.28C88.1316 31.4 88.3182 32.16 88.6916 32.56C89.0916 32.96 89.7582 33.16 90.6916 33.16V34C90.2116 33.9733 89.4649 33.9467 88.4516 33.92C87.4382 33.8667 86.4116 33.84 85.3716 33.84C84.3316 33.84 83.2782 33.8667 82.2116 33.92C81.1449 33.9467 80.3449 33.9733 79.8116 34V33.16C80.7449 33.16 81.3982 32.96 81.7716 32.56C82.1716 32.16 82.3716 31.4 82.3716 30.28V17.68C82.3716 16.48 82.1849 15.6 81.8116 15.04C81.4649 14.4533 80.7982 14.16 79.8116 14.16V13.32C80.6649 13.4 81.4916 13.44 82.2916 13.44C83.4116 13.44 84.4516 13.4 85.4116 13.32C86.3982 13.2133 87.3049 13.0667 88.1316 12.88ZM89.4916 1.31998C89.9449 1.66665 90.1849 2.14665 90.2116 2.75998C90.2382 3.37332 90.0382 3.94665 89.6116 4.47998C89.1849 5.01332 88.6649 5.49332 88.0516 5.91998C87.4382 6.34665 86.7049 6.86665 85.8516 7.47998C85.0249 8.09332 84.0249 8.94665 82.8516 10.04L82.4116 9.67998C83.2116 8.23998 83.7982 7.03998 84.1716 6.07999C84.5449 5.09332 84.8649 4.25332 85.1316 3.55998C85.3982 2.86665 85.7582 2.26665 86.2116 1.75998C86.6116 1.22665 87.1316 0.919984 87.7716 0.839983C88.4382 0.733317 89.0116 0.893317 89.4916 1.31998Z" fill="#141414"/>
<path d="M107.309 12.76C108.429 12.76 109.335 12.9067 110.029 13.2C110.749 13.4667 111.309 13.84 111.709 14.32C112.135 14.8267 112.442 15.48 112.629 16.28C112.842 17.08 112.949 18.16 112.949 19.52V30.28C112.949 31.4 113.135 32.16 113.509 32.56C113.909 32.96 114.575 33.16 115.509 33.16V34C115.002 33.9733 114.242 33.9467 113.229 33.92C112.215 33.8667 111.215 33.84 110.229 33.84C109.215 33.84 108.215 33.8667 107.229 33.92C106.269 33.9467 105.535 33.9733 105.029 34V33.16C105.829 33.16 106.389 32.96 106.709 32.56C107.029 32.16 107.189 31.4 107.189 30.28V17.84C107.189 17.1733 107.122 16.6 106.989 16.12C106.855 15.6133 106.615 15.2267 106.269 14.96C105.922 14.6667 105.402 14.52 104.709 14.52C103.989 14.52 103.322 14.72 102.709 15.12C102.122 15.52 101.642 16.08 101.269 16.8C100.922 17.4933 100.749 18.28 100.749 19.16V30.28C100.749 31.4 100.909 32.16 101.229 32.56C101.575 32.96 102.135 33.16 102.909 33.16V34C102.429 33.9733 101.722 33.9467 100.789 33.92C99.8821 33.8667 98.9354 33.84 97.9488 33.84C96.9354 33.84 95.8954 33.8667 94.8288 33.92C93.7621 33.9467 92.9621 33.9733 92.4288 34V33.16C93.3621 33.16 94.0154 32.96 94.3888 32.56C94.7888 32.16 94.9888 31.4 94.9888 30.28V17.68C94.9888 16.48 94.8021 15.6 94.4288 15.04C94.0821 14.4533 93.4154 14.16 92.4288 14.16V13.32C93.2821 13.4 94.1088 13.44 94.9088 13.44C96.0288 13.44 97.0688 13.4 98.0288 13.32C99.0154 13.2133 99.9221 13.0667 100.749 12.88V16.48C101.415 15.12 102.322 14.16 103.469 13.6C104.615 13.04 105.895 12.76 107.309 12.76Z" fill="#141414"/>
<path d="M122.519 34.28C121.319 34.28 120.319 34.0533 119.519 33.6C118.719 33.1467 118.132 32.5467 117.759 31.8C117.386 31.0267 117.199 30.1867 117.199 29.28C117.199 28.1333 117.452 27.2 117.959 26.48C118.492 25.76 119.172 25.1733 119.999 24.72C120.826 24.2667 121.692 23.8933 122.599 23.6C123.532 23.3067 124.412 23.0267 125.239 22.76C126.092 22.4667 126.772 22.1333 127.279 21.76C127.812 21.36 128.079 20.8533 128.079 20.24V17.12C128.079 16.4267 127.959 15.8133 127.719 15.28C127.506 14.72 127.159 14.2933 126.679 14C126.226 13.7067 125.626 13.56 124.879 13.56C124.346 13.56 123.812 13.64 123.279 13.8C122.746 13.9333 122.306 14.1733 121.959 14.52C122.706 14.7867 123.279 15.2 123.679 15.76C124.106 16.2933 124.319 16.9067 124.319 17.6C124.319 18.5067 123.999 19.2267 123.359 19.76C122.746 20.2933 122.012 20.56 121.159 20.56C120.199 20.56 119.466 20.2667 118.959 19.68C118.479 19.0667 118.239 18.3333 118.239 17.48C118.239 16.7067 118.426 16.0667 118.799 15.56C119.199 15.0533 119.746 14.5733 120.439 14.12C121.186 13.6933 122.079 13.36 123.119 13.12C124.186 12.88 125.332 12.76 126.559 12.76C127.786 12.76 128.892 12.8933 129.879 13.16C130.866 13.4 131.692 13.8533 132.359 14.52C132.972 15.1333 133.372 15.8933 133.559 16.8C133.746 17.68 133.839 18.8 133.839 20.16V31.04C133.839 31.7067 133.906 32.1733 134.039 32.44C134.172 32.68 134.399 32.8 134.719 32.8C134.959 32.8 135.186 32.7333 135.399 32.6C135.639 32.4667 135.892 32.3067 136.159 32.12L136.559 32.8C135.999 33.28 135.346 33.6533 134.599 33.92C133.879 34.16 133.066 34.28 132.159 34.28C131.172 34.28 130.386 34.1467 129.799 33.88C129.212 33.5867 128.786 33.2 128.519 32.72C128.279 32.24 128.159 31.68 128.159 31.04C127.519 32.0533 126.746 32.8533 125.839 33.44C124.932 34 123.826 34.28 122.519 34.28ZM125.359 31.72C125.892 31.72 126.372 31.6 126.799 31.36C127.252 31.0933 127.679 30.6667 128.079 30.08V21.88C127.839 22.28 127.506 22.64 127.079 22.96C126.652 23.28 126.199 23.6133 125.719 23.96C125.239 24.28 124.772 24.64 124.319 25.04C123.892 25.44 123.546 25.9333 123.279 26.52C123.012 27.1067 122.879 27.8133 122.879 28.64C122.879 29.68 123.106 30.4533 123.559 30.96C124.012 31.4667 124.612 31.72 125.359 31.72Z" fill="#141414"/>
<path d="M155.003 12.88V37.28C155.003 38.5333 155.323 39.36 155.963 39.76C156.603 40.1867 157.483 40.4 158.603 40.4V41.24C157.91 41.2133 156.949 41.1733 155.723 41.12C154.523 41.0933 153.243 41.08 151.883 41.08C150.896 41.08 149.923 41.0933 148.963 41.12C148.029 41.1733 147.323 41.2133 146.843 41.24V40.4C147.723 40.4 148.336 40.2133 148.683 39.84C149.056 39.4667 149.243 38.7467 149.243 37.68V17.68C149.243 16.48 149.056 15.6 148.683 15.04C148.309 14.4533 147.643 14.16 146.683 14.16V13.32C147.536 13.4 148.363 13.44 149.163 13.44C150.256 13.44 151.296 13.4 152.283 13.32C153.27 13.2133 154.176 13.0667 155.003 12.88ZM161.203 12.76C162.563 12.76 163.776 13.1333 164.843 13.88C165.91 14.6 166.763 15.7067 167.403 17.2C168.043 18.6667 168.363 20.5067 168.363 22.72C168.363 24.6667 168.136 26.3733 167.683 27.84C167.256 29.3067 166.629 30.5467 165.803 31.56C165.003 32.5467 164.029 33.2933 162.883 33.8C161.763 34.3067 160.496 34.56 159.083 34.56C158.043 34.56 157.096 34.3733 156.243 34C155.389 33.6533 154.736 33.1467 154.283 32.48L154.683 31.96C154.949 32.44 155.323 32.8133 155.803 33.08C156.309 33.3467 156.883 33.48 157.523 33.48C158.723 33.48 159.669 33.08 160.363 32.28C161.056 31.4533 161.549 30.3067 161.843 28.84C162.163 27.3467 162.323 25.5733 162.323 23.52C162.323 21.2267 162.176 19.4267 161.883 18.12C161.589 16.8133 161.189 15.88 160.683 15.32C160.176 14.76 159.563 14.48 158.843 14.48C157.883 14.48 157.003 14.8533 156.203 15.6C155.43 16.3467 154.99 17.4133 154.883 18.8L154.683 17.4C155.163 15.88 155.976 14.7333 157.123 13.96C158.296 13.16 159.656 12.76 161.203 12.76Z" fill="#141414"/>
<path d="M176.347 34.28C175.147 34.28 174.147 34.0533 173.347 33.6C172.547 33.1467 171.961 32.5467 171.587 31.8C171.214 31.0267 171.027 30.1867 171.027 29.28C171.027 28.1333 171.281 27.2 171.787 26.48C172.321 25.76 173.001 25.1733 173.827 24.72C174.654 24.2667 175.521 23.8933 176.427 23.6C177.361 23.3067 178.241 23.0267 179.067 22.76C179.921 22.4667 180.601 22.1333 181.107 21.76C181.641 21.36 181.907 20.8533 181.907 20.24V17.12C181.907 16.4267 181.787 15.8133 181.547 15.28C181.334 14.72 180.987 14.2933 180.507 14C180.054 13.7067 179.454 13.56 178.707 13.56C178.174 13.56 177.641 13.64 177.107 13.8C176.574 13.9333 176.134 14.1733 175.787 14.52C176.534 14.7867 177.107 15.2 177.507 15.76C177.934 16.2933 178.147 16.9067 178.147 17.6C178.147 18.5067 177.827 19.2267 177.187 19.76C176.574 20.2933 175.841 20.56 174.987 20.56C174.027 20.56 173.294 20.2667 172.787 19.68C172.307 19.0667 172.067 18.3333 172.067 17.48C172.067 16.7067 172.254 16.0667 172.627 15.56C173.027 15.0533 173.574 14.5733 174.267 14.12C175.014 13.6933 175.907 13.36 176.947 13.12C178.014 12.88 179.161 12.76 180.387 12.76C181.614 12.76 182.721 12.8933 183.707 13.16C184.694 13.4 185.521 13.8533 186.187 14.52C186.801 15.1333 187.201 15.8933 187.387 16.8C187.574 17.68 187.667 18.8 187.667 20.16V31.04C187.667 31.7067 187.734 32.1733 187.867 32.44C188.001 32.68 188.227 32.8 188.547 32.8C188.787 32.8 189.014 32.7333 189.227 32.6C189.467 32.4667 189.721 32.3067 189.987 32.12L190.387 32.8C189.827 33.28 189.174 33.6533 188.427 33.92C187.707 34.16 186.894 34.28 185.987 34.28C185.001 34.28 184.214 34.1467 183.627 33.88C183.041 33.5867 182.614 33.2 182.347 32.72C182.107 32.24 181.987 31.68 181.987 31.04C181.347 32.0533 180.574 32.8533 179.667 33.44C178.761 34 177.654 34.28 176.347 34.28ZM179.187 31.72C179.721 31.72 180.201 31.6 180.627 31.36C181.081 31.0933 181.507 30.6667 181.907 30.08V21.88C181.667 22.28 181.334 22.64 180.907 22.96C180.481 23.28 180.027 23.6133 179.547 23.96C179.067 24.28 178.601 24.64 178.147 25.04C177.721 25.44 177.374 25.9333 177.107 26.52C176.841 27.1067 176.707 27.8133 176.707 28.64C176.707 29.68 176.934 30.4533 177.387 30.96C177.841 31.4667 178.441 31.72 179.187 31.72Z" fill="#141414"/>
<path d="M201.93 12.76C202.97 12.76 203.917 12.88 204.77 13.12C205.65 13.3333 206.37 13.6133 206.93 13.96C207.624 14.3867 208.157 14.92 208.53 15.56C208.93 16.1733 209.13 16.8933 209.13 17.72C209.13 18.6533 208.837 19.4267 208.25 20.04C207.664 20.6267 206.904 20.92 205.97 20.92C205.037 20.92 204.29 20.6533 203.73 20.12C203.17 19.5867 202.89 18.8667 202.89 17.96C202.89 17.1067 203.157 16.4 203.69 15.84C204.224 15.2533 204.837 14.8667 205.53 14.68C205.317 14.4133 204.997 14.1867 204.57 14C204.144 13.8133 203.664 13.72 203.13 13.72C202.304 13.72 201.57 13.96 200.93 14.44C200.317 14.92 199.797 15.5867 199.37 16.44C198.944 17.2933 198.61 18.2933 198.37 19.44C198.157 20.5867 198.05 21.84 198.05 23.2C198.05 25.2533 198.304 26.8667 198.81 28.04C199.344 29.2133 200.01 30.04 200.81 30.52C201.637 31 202.49 31.24 203.37 31.24C203.877 31.24 204.424 31.16 205.01 31C205.624 30.84 206.237 30.52 206.85 30.04C207.49 29.56 208.077 28.88 208.61 28L209.29 28.24C208.997 29.2267 208.517 30.2133 207.85 31.2C207.184 32.1867 206.317 33 205.25 33.64C204.184 34.2533 202.877 34.56 201.33 34.56C199.597 34.56 198.024 34.1867 196.61 33.44C195.224 32.6667 194.104 31.4933 193.25 29.92C192.424 28.32 192.01 26.2667 192.01 23.76C192.01 21.36 192.437 19.3467 193.29 17.72C194.17 16.0667 195.357 14.8267 196.85 14C198.344 13.1733 200.037 12.76 201.93 12.76Z" fill="#141414"/>
<path d="M219.494 2.71998V16.48C220.161 15.0933 221.054 14.1333 222.174 13.6C223.321 13.04 224.601 12.76 226.014 12.76C227.161 12.76 228.081 12.9067 228.774 13.2C229.467 13.4667 230.014 13.84 230.414 14.32C230.867 14.8267 231.187 15.48 231.374 16.28C231.587 17.08 231.694 18.16 231.694 19.52V30.28C231.694 31.4 231.881 32.16 232.254 32.56C232.654 32.96 233.321 33.16 234.254 33.16V34C233.747 33.9733 232.974 33.9467 231.934 33.92C230.921 33.8667 229.934 33.84 228.974 33.84C227.934 33.84 226.921 33.8667 225.934 33.92C224.974 33.9467 224.254 33.9733 223.774 34V33.16C224.574 33.16 225.134 32.96 225.454 32.56C225.774 32.16 225.934 31.4 225.934 30.28V17.84C225.934 17.1733 225.867 16.6 225.734 16.12C225.601 15.6133 225.347 15.2267 224.974 14.96C224.627 14.6667 224.121 14.52 223.454 14.52C222.734 14.52 222.067 14.72 221.454 15.12C220.867 15.4933 220.387 16.0267 220.014 16.72C219.667 17.4133 219.494 18.2133 219.494 19.12V30.28C219.494 31.4 219.654 32.16 219.974 32.56C220.294 32.96 220.854 33.16 221.654 33.16V34C221.174 33.9733 220.467 33.9467 219.534 33.92C218.601 33.8667 217.654 33.84 216.694 33.84C215.654 33.84 214.601 33.8667 213.534 33.92C212.494 33.9467 211.707 33.9733 211.174 34V33.16C212.107 33.16 212.761 32.96 213.134 32.56C213.534 32.16 213.734 31.4 213.734 30.28V7.51998C213.734 6.31998 213.547 5.43998 213.174 4.87998C212.827 4.29332 212.161 3.99998 211.174 3.99998V3.15998C212.027 3.23999 212.854 3.27999 213.654 3.27999C214.747 3.27999 215.787 3.23999 216.774 3.15998C217.761 3.05332 218.667 2.90665 219.494 2.71998Z" fill="#141414"/>
<path d="M240.91 2.99998C242.03 2.99998 242.91 3.27998 243.55 3.83999C244.217 4.37332 244.55 5.11998 244.55 6.07999C244.55 7.03998 244.217 7.79998 243.55 8.35998C242.91 8.89332 242.03 9.15998 240.91 9.15998C239.79 9.15998 238.897 8.89332 238.23 8.35998C237.59 7.79998 237.27 7.03998 237.27 6.07999C237.27 5.11998 237.59 4.37332 238.23 3.83999C238.897 3.27998 239.79 2.99998 240.91 2.99998ZM244.03 12.88V30.28C244.03 31.4 244.217 32.16 244.59 32.56C244.99 32.96 245.657 33.16 246.59 33.16V34C246.11 33.9733 245.363 33.9467 244.35 33.92C243.337 33.8667 242.31 33.84 241.27 33.84C240.23 33.84 239.177 33.8667 238.11 33.92C237.043 33.9467 236.243 33.9733 235.71 34V33.16C236.643 33.16 237.297 32.96 237.67 32.56C238.07 32.16 238.27 31.4 238.27 30.28V17.68C238.27 16.48 238.083 15.6 237.71 15.04C237.363 14.4533 236.697 14.16 235.71 14.16V13.32C236.563 13.4 237.39 13.44 238.19 13.44C239.31 13.44 240.35 13.4 241.31 13.32C242.297 13.2133 243.203 13.0667 244.03 12.88Z" fill="#141414"/>
<path d="M258.647 12.76C260.994 12.76 262.834 13.4533 264.167 14.84C265.501 16.2267 266.167 18.4933 266.167 21.64H253.007L252.927 20.88H261.127C261.154 19.5733 261.074 18.3733 260.887 17.28C260.701 16.16 260.407 15.2667 260.007 14.6C259.607 13.9333 259.074 13.6 258.407 13.6C257.474 13.6 256.674 14.1867 256.007 15.36C255.367 16.5333 254.981 18.48 254.847 21.2L254.967 21.44C254.941 21.76 254.914 22.0933 254.887 22.44C254.887 22.7867 254.887 23.1467 254.887 23.52C254.887 25.36 255.141 26.8533 255.647 28C256.181 29.1467 256.847 29.9867 257.647 30.52C258.447 31.0267 259.261 31.28 260.087 31.28C260.647 31.28 261.221 31.2 261.807 31.04C262.421 30.8533 263.034 30.5333 263.647 30.08C264.261 29.6 264.834 28.9333 265.367 28.08L266.087 28.32C265.767 29.3333 265.261 30.32 264.567 31.28C263.874 32.24 262.994 33.0266 261.927 33.64C260.861 34.2533 259.581 34.56 258.087 34.56C256.274 34.56 254.674 34.1733 253.287 33.4C251.901 32.6267 250.807 31.4533 250.007 29.88C249.234 28.3067 248.847 26.3067 248.847 23.88C248.847 21.4 249.261 19.3333 250.087 17.68C250.941 16.0267 252.101 14.8 253.567 14C255.061 13.1733 256.754 12.76 258.647 12.76Z" fill="#141414"/>
<path d="M276.243 41.52C274.59 41.52 273.11 41.3733 271.803 41.08C270.523 40.8133 269.51 40.3867 268.763 39.8C268.043 39.24 267.683 38.5467 267.683 37.72C267.683 36.8933 268.057 36.1467 268.803 35.48C269.55 34.84 270.657 34.3333 272.123 33.96L272.483 34.6C271.977 35 271.603 35.4267 271.363 35.88C271.15 36.36 271.043 36.8533 271.043 37.36C271.043 38.48 271.55 39.3333 272.563 39.92C273.603 40.5333 275.003 40.84 276.763 40.84C277.963 40.84 279.03 40.68 279.963 40.36C280.923 40.04 281.67 39.56 282.203 38.92C282.763 38.28 283.043 37.4933 283.043 36.56C283.043 35.76 282.75 35.08 282.163 34.52C281.577 33.9867 280.403 33.72 278.643 33.72H276.163C275.07 33.72 274.11 33.6 273.283 33.36C272.483 33.12 271.857 32.7467 271.403 32.24C270.95 31.7067 270.723 31.04 270.723 30.24C270.723 29.12 271.163 28.1333 272.043 27.28C272.923 26.4267 274.23 25.6267 275.963 24.88L276.363 25.2C275.857 25.52 275.377 25.8667 274.923 26.24C274.497 26.5867 274.283 27.04 274.283 27.6C274.283 28.4533 274.817 28.88 275.883 28.88H280.243C281.71 28.88 283.017 29.0533 284.163 29.4C285.337 29.7467 286.257 30.32 286.923 31.12C287.617 31.8933 287.963 32.9067 287.963 34.16C287.963 35.4667 287.537 36.68 286.683 37.8C285.857 38.92 284.577 39.8133 282.843 40.48C281.11 41.1733 278.91 41.52 276.243 41.52ZM276.643 25.48C275.123 25.48 273.763 25.2533 272.563 24.8C271.363 24.3467 270.417 23.6533 269.723 22.72C269.03 21.7867 268.683 20.5867 268.683 19.12C268.683 17.6533 269.03 16.4533 269.723 15.52C270.417 14.56 271.363 13.8667 272.563 13.44C273.763 12.9867 275.123 12.76 276.643 12.76C278.163 12.76 279.523 12.9867 280.723 13.44C281.923 13.8667 282.87 14.56 283.563 15.52C284.257 16.4533 284.603 17.6533 284.603 19.12C284.603 20.5867 284.257 21.7867 283.563 22.72C282.87 23.6533 281.923 24.3467 280.723 24.8C279.523 25.2533 278.163 25.48 276.643 25.48ZM276.643 24.76C277.363 24.76 277.923 24.36 278.323 23.56C278.723 22.7333 278.923 21.2533 278.923 19.12C278.923 16.9867 278.723 15.52 278.323 14.72C277.923 13.8933 277.363 13.48 276.643 13.48C275.95 13.48 275.39 13.8933 274.963 14.72C274.563 15.52 274.363 16.9867 274.363 19.12C274.363 21.2533 274.563 22.7333 274.963 23.56C275.39 24.36 275.95 24.76 276.643 24.76ZM282.883 16.2L282.083 15.92C282.483 14.88 283.123 14.0133 284.003 13.32C284.91 12.6267 285.883 12.28 286.923 12.28C287.777 12.28 288.417 12.52 288.843 13C289.297 13.4533 289.523 14.0533 289.523 14.8C289.523 15.6 289.31 16.2 288.883 16.6C288.457 16.9733 287.977 17.16 287.443 17.16C286.99 17.16 286.563 17 286.163 16.68C285.79 16.36 285.577 15.88 285.523 15.24C285.47 14.5733 285.697 13.72 286.203 12.68L286.483 12.92C285.47 13.2933 284.71 13.7333 284.203 14.24C283.697 14.72 283.257 15.3733 282.883 16.2Z" fill="#141414"/>
<path d="M295.722 34.28C294.522 34.28 293.522 34.0533 292.722 33.6C291.922 33.1467 291.336 32.5467 290.962 31.8C290.589 31.0267 290.402 30.1867 290.402 29.28C290.402 28.1333 290.656 27.2 291.162 26.48C291.696 25.76 292.376 25.1733 293.202 24.72C294.029 24.2667 294.896 23.8933 295.802 23.6C296.736 23.3067 297.616 23.0267 298.442 22.76C299.296 22.4667 299.976 22.1333 300.482 21.76C301.016 21.36 301.282 20.8533 301.282 20.24V17.12C301.282 16.4267 301.162 15.8133 300.922 15.28C300.709 14.72 300.362 14.2933 299.882 14C299.429 13.7067 298.829 13.56 298.082 13.56C297.549 13.56 297.016 13.64 296.482 13.8C295.949 13.9333 295.509 14.1733 295.162 14.52C295.909 14.7867 296.482 15.2 296.882 15.76C297.309 16.2933 297.522 16.9067 297.522 17.6C297.522 18.5067 297.202 19.2267 296.562 19.76C295.949 20.2933 295.216 20.56 294.362 20.56C293.402 20.56 292.669 20.2667 292.162 19.68C291.682 19.0667 291.442 18.3333 291.442 17.48C291.442 16.7067 291.629 16.0667 292.002 15.56C292.402 15.0533 292.949 14.5733 293.642 14.12C294.389 13.6933 295.282 13.36 296.322 13.12C297.389 12.88 298.536 12.76 299.762 12.76C300.989 12.76 302.096 12.8933 303.082 13.16C304.069 13.4 304.896 13.8533 305.562 14.52C306.176 15.1333 306.576 15.8933 306.762 16.8C306.949 17.68 307.042 18.8 307.042 20.16V31.04C307.042 31.7067 307.109 32.1733 307.242 32.44C307.376 32.68 307.602 32.8 307.922 32.8C308.162 32.8 308.389 32.7333 308.602 32.6C308.842 32.4667 309.096 32.3067 309.362 32.12L309.762 32.8C309.202 33.28 308.549 33.6533 307.802 33.92C307.082 34.16 306.269 34.28 305.362 34.28C304.376 34.28 303.589 34.1467 303.002 33.88C302.416 33.5867 301.989 33.2 301.722 32.72C301.482 32.24 301.362 31.68 301.362 31.04C300.722 32.0533 299.949 32.8533 299.042 33.44C298.136 34 297.029 34.28 295.722 34.28ZM298.562 31.72C299.096 31.72 299.576 31.6 300.002 31.36C300.456 31.0933 300.882 30.6667 301.282 30.08V21.88C301.042 22.28 300.709 22.64 300.282 22.96C299.856 23.28 299.402 23.6133 298.922 23.96C298.442 24.28 297.976 24.64 297.522 25.04C297.096 25.44 296.749 25.9333 296.482 26.52C296.216 27.1067 296.082 27.8133 296.082 28.64C296.082 29.68 296.309 30.4533 296.762 30.96C297.216 31.4667 297.816 31.72 298.562 31.72Z" fill="#141414"/>
</svg>
